<svg version="1.1" id="Layer_1" xmlns="http://www.w3.org/2000/svg" xmlns:xlink="http://www.w3.org/1999/xlink" x="0px" y="0px"
	 width="100%" viewBox="0 0 225 225" enable-background="new 0 0 225 225" xml:space="preserve">
<path fill="#FDFDFE" opacity="1.000000" stroke="none" 
	d="
M133.000000,226.000000 
	C88.666672,226.000000 44.833340,226.000000 1.000006,226.000000 
	C1.000004,151.000000 1.000004,76.000015 1.000002,1.000016 
	C75.999992,1.000011 150.999985,1.000011 225.999969,1.000005 
	C225.999985,75.999985 225.999985,150.999969 226.000000,225.999969 
	C195.166672,226.000000 164.333328,226.000000 133.000000,226.000000 
M54.852100,195.362305 
	C98.593521,168.168350 142.334946,140.974396 186.380203,113.591553 
	C139.175018,84.428085 92.385223,55.521263 45.643272,26.643993 
	C-12.371512,71.611351 -9.970045,158.848007 45.820889,200.976685 
	C48.606441,199.265533 51.434406,197.528320 54.852100,195.362305 
M167.452530,211.018234 
	C198.559174,193.126068 217.106186,166.543060 223.766525,130.120956 
	C164.999832,154.900574 107.401901,179.187378 49.468155,203.615784 
	C79.714386,226.842850 127.515518,232.972107 167.452530,211.018234 
M165.093948,15.309183 
	C125.179787,-3.716988 86.860992,-0.634895 48.965248,23.449928 
	C107.514526,47.991627 165.067368,72.115654 223.694824,96.690125 
	C216.528152,59.930412 197.577057,33.214397 165.093948,15.309183 
z"/>
<path fill="#01549E" opacity="1.000000" stroke="none" 
	d="
M54.557236,195.576721 
	C51.434406,197.528320 48.606441,199.265533 45.820889,200.976685 
	C-9.970045,158.848007 -12.371512,71.611351 45.643272,26.643993 
	C92.385223,55.521263 139.175018,84.428085 186.380203,113.591553 
	C142.334946,140.974396 98.593521,168.168350 54.557236,195.576721 
z"/>
<path fill="#02549E" opacity="1.000000" stroke="none" 
	d="
M167.116394,211.171539 
	C127.515518,232.972107 79.714386,226.842850 49.468155,203.615784 
	C107.401901,179.187378 164.999832,154.900574 223.766525,130.120956 
	C217.106186,166.543060 198.559174,193.126068 167.116394,211.171539 
z"/>
<path fill="#01549E" opacity="1.000000" stroke="none" 
	d="
M165.401184,15.521404 
	C197.577057,33.214397 216.528152,59.930412 223.694824,96.690125 
	C165.067368,72.115654 107.514526,47.991627 48.965248,23.449928 
	C86.860992,-0.634895 125.179787,-3.716988 165.401184,15.521404 
z"/>
</svg>